<?xml version="1.0" standalone="no"?>
<!DOCTYPE svg PUBLIC "-//W3C//DTD SVG 20010904//EN"
 "http://www.w3.org/TR/2001/REC-SVG-20010904/DTD/svg10.dtd">
<svg version="1.0" xmlns="http://www.w3.org/2000/svg"
 width="550.000000pt" height="550.000000pt" viewBox="0 0 550.000000 550.000000"
 preserveAspectRatio="xMidYMid meet">
<metadata>
Created by potrace 1.11, written by Peter Selinger 2001-2013
</metadata>
<g transform="translate(0.000000,550.000000) scale(0.100000,-0.100000)"
fill="#000000" stroke="none">
<path d="M2255 4783 c-342 -8 -786 -40 -1018 -74 -479 -69 -728 -218 -873
-522 -78 -165 -103 -339 -111 -782 -6 -344 6 -638 43 -994 80 -782 190 -1152
403 -1348 200 -185 491 -272 1046 -313 532 -39 1452 -39 2010 0 577 41 887
141 1083 350 187 199 291 572 366 1310 37 358 49 651 43 995 -8 445 -33 617
-112 784 -154 324 -424 471 -985 535 -462 53 -1183 76 -1895 59z m1040 -163
c450 -19 842 -58 1030 -102 408 -95 593 -302 644 -723 34 -285 37 -835 6
-1205 -101 -1183 -257 -1494 -811 -1609 -286 -60 -774 -91 -1424 -91 -676 0
-1198 37 -1467 105 -125 31 -280 108 -355 175 -203 181 -308 530 -378 1255
-35 368 -45 679 -32 1003 7 158 17 323 23 367 53 413 230 621 611 716 204 51
623 92 1143 112 192 8 798 6 1010 -3z"/>
<path d="M1465 4440 c-60 -4 -133 -10 -162 -14 l-51 -8 4 -51 c3 -29 16 -234
30 -457 58 -949 98 -1537 154 -2275 36 -464 40 -511 46 -551 l4 -31 133 -11
c72 -6 184 -14 248 -18 l115 -6 28 108 c150 586 216 731 360 795 141 62 577
66 735 7 107 -40 171 -127 240 -323 30 -82 122 -409 151 -534 l13 -53 116 6
c64 4 176 12 248 18 l133 11 5 31 c20 128 177 2367 220 3151 3 55 8 119 11
141 l5 42 -47 7 c-49 7 -297 24 -302 20 -1 -1 -49 -213 -106 -471 -117 -527
-248 -1057 -302 -1220 -20 -60 -56 -148 -81 -196 -72 -141 -191 -235 -345
-274 -98 -25 -456 -31 -578 -10 -250 43 -384 176 -484 480 -53 161 -191 719
-301 1216 -116 526 -105 480 -119 478 -6 0 -60 -4 -121 -8z"/>
</g>
</svg>
